<svg version="1.1" id="Layer_1" xmlns="http://www.w3.org/2000/svg" xmlns:xlink="http://www.w3.org/1999/xlink" x="0px" y="0px"
	 width="100%" viewBox="0 0 992 992" enable-background="new 0 0 992 992" xml:space="preserve">
<path fill="#000000" opacity="1.000000" stroke="none" 
	d="
M540.531372,1.000000 
	C547.655029,3.964428 554.899597,3.536082 561.883606,4.575075 
	C569.568787,5.718385 577.363892,6.225656 584.985474,7.671793 
	C599.607727,10.446229 614.268982,13.189836 628.674377,16.881392 
	C642.128296,20.329105 655.390564,24.645679 668.523499,29.196604 
	C687.981995,35.939560 706.929260,43.998222 725.300903,53.331348 
	C763.746582,72.862419 799.307068,96.582146 831.810852,125.062981 
	C856.845947,146.999420 879.183105,171.257416 899.515320,197.520508 
	C928.039673,234.365234 950.220947,274.766968 967.592285,317.889008 
	C975.906677,338.528595 982.118835,359.867828 987.866150,381.331482 
	C989.566772,387.682465 989.864136,394.389709 992.722656,400.774475 
	C993.000000,406.022095 993.000000,411.044189 993.000000,416.533142 
	C989.494019,411.596100 990.140198,405.167053 988.907104,399.248901 
	C985.923279,384.928192 982.348083,370.768036 978.097534,356.808289 
	C969.012207,326.970093 957.057861,298.270538 942.560059,270.643127 
	C923.741333,234.782013 900.927551,201.710052 873.978516,171.440033 
	C844.910889,138.790375 812.289734,110.279465 775.880005,86.124580 
	C738.622437,61.407211 698.755676,42.097397 656.199402,28.243118 
	C629.393066,19.516260 602.055237,13.097396 574.279175,8.674747 
	C543.293823,3.741101 512.010376,3.331380 480.702850,4.076949 
	C464.074982,4.472930 447.510132,5.966640 431.127869,8.557913 
	C415.085754,11.095386 399.139191,14.327319 383.315094,18.174547 
	C342.174652,28.176781 303.040924,43.338093 265.880951,63.500126 
	C232.388046,81.672516 201.274261,103.327789 172.841537,128.782898 
	C141.292969,157.027542 113.444870,188.496567 89.797722,223.637985 
	C62.469612,264.249573 41.492638,307.899902 27.019781,354.694977 
	C19.933949,377.605591 14.678967,400.929199 10.674274,424.531067 
	C4.743757,459.483002 3.996233,494.807587 5.643311,530.057434 
	C6.881032,556.546509 11.030589,582.796997 16.848967,608.799133 
	C32.283993,677.777832 61.236214,740.466858 103.286674,797.125916 
	C131.030014,834.507385 163.119736,867.741394 200.351288,895.814331 
	C239.964066,925.682678 282.945038,949.566772 329.434448,966.931213 
	C357.359772,977.361694 386.074036,985.110229 415.408844,990.523499 
	C418.770203,991.143799 422.516388,989.793762 425.746460,992.711792 
	C420.645081,993.000000 415.290131,993.000000 409.467590,993.000000 
	C400.968384,989.725830 392.356384,988.592102 383.999878,986.680725 
	C368.902710,983.227600 354.188965,978.612061 339.551941,973.712891 
	C313.633240,965.037781 288.706146,954.014221 264.697296,940.968933 
	C243.455673,929.427185 223.305359,916.191772 203.651993,902.088684 
	C180.936981,885.788574 160.759872,866.760559 141.337112,846.823181 
	C120.477699,825.411194 101.983322,802.108093 85.411728,777.230408 
	C65.865875,747.887634 49.671684,716.782898 36.665829,684.069946 
	C30.232458,667.888428 24.644938,651.383362 20.327135,634.425293 
	C17.383673,622.864929 14.247715,611.338135 11.892932,599.658936 
	C8.682124,583.734070 6.216646,567.661194 4.728095,551.460754 
	C2.182097,523.751770 2.142804,496.033997 3.413349,468.238220 
	C4.182173,451.418640 6.546251,434.835876 8.953765,418.263977 
	C10.786451,405.648865 13.750114,393.165192 16.786537,380.764069 
	C25.233551,346.265381 37.312450,313.063721 52.933350,281.138855 
	C66.436134,253.542831 82.362106,227.427795 100.623268,202.760498 
	C116.893349,180.782776 134.797058,160.145554 154.474350,141.167892 
	C189.069504,107.802795 227.686172,79.845879 270.294800,57.583485 
	C291.516846,46.495270 313.434448,36.908737 336.147980,29.143898 
	C353.091522,23.351582 370.114441,17.977474 387.603271,14.054383 
	C401.335754,10.973924 415.122925,8.424135 429.062225,6.382911 
	C439.247864,4.891357 449.437927,3.640293 459.657501,2.508920 
	C460.607086,2.403796 461.506226,1.843600 462.714417,1.247352 
	C488.687561,1.000000 514.375122,1.000000 540.531372,1.000000 
z"/>
<path fill="#000000" opacity="1.000000" stroke="none" 
	d="
M993.000000,601.532410 
	C988.912537,605.800659 989.911011,611.336243 988.704041,615.981323 
	C985.873108,626.876831 983.331543,637.863098 979.997131,648.615051 
	C973.946838,668.124451 966.794617,687.242920 958.305298,705.833313 
	C939.541626,746.922913 916.232727,785.218994 887.289490,819.955017 
	C863.016418,849.086182 836.077759,875.547485 805.636475,898.215088 
	C774.737488,921.223511 742.060425,941.277771 706.725769,956.972473 
	C682.379333,967.786377 657.421021,976.729126 631.821289,983.875610 
	C620.354553,987.076721 608.563354,989.114502 596.924988,991.705261 
	C596.123474,991.883667 595.368347,992.271057 594.295837,992.780640 
	C588.977905,993.000000 583.955811,993.000000 578.466858,993.000000 
	C581.694824,989.057861 586.830872,990.873657 591.219360,989.977478 
	C607.013794,986.751770 622.719116,983.206848 638.217957,978.806824 
	C668.062500,970.334045 696.902161,959.223694 724.584045,945.185547 
	C760.372437,927.036316 793.709351,905.179688 824.291565,879.152893 
	C852.042419,855.535706 876.933044,829.192017 898.897339,800.155396 
	C920.560791,771.516541 938.817810,740.802612 953.948181,708.189941 
	C964.820923,684.754211 973.721558,660.615051 980.822205,635.831238 
	C985.207764,620.524536 989.281067,605.088196 991.181213,589.196838 
	C991.333740,587.921204 991.972839,586.703735 992.692871,585.229614 
	C993.000000,590.354919 993.000000,595.709900 993.000000,601.532410 
z"/>
<path fill="#000000" opacity="1.000000" stroke="none" 
	d="
M658.527832,930.640991 
	C638.455933,937.432922 618.655334,943.678528 598.215515,947.848267 
	C581.102417,951.339294 563.924011,953.972412 546.551147,955.862732 
	C525.276733,958.177490 503.986481,958.403076 482.697968,957.780151 
	C468.957520,957.378113 455.259369,955.664062 441.581512,953.758911 
	C426.407684,951.645386 411.393463,948.959717 396.474274,945.583191 
	C370.587738,939.724670 345.552338,931.267395 321.224182,920.725037 
	C290.720703,907.506653 261.678467,891.650452 234.771408,872.036072 
	C204.216324,849.762512 176.679581,824.351013 152.402939,795.229614 
	C122.835030,759.760986 98.853401,721.022217 80.777496,678.589539 
	C70.590233,654.675171 62.834911,629.949524 56.857944,604.672852 
	C51.963760,583.975525 48.458744,562.963013 46.861683,541.812500 
	C45.060764,517.962158 44.522720,494.060944 46.289265,470.037415 
	C48.111084,445.262146 51.624454,420.830597 57.049469,396.709564 
	C63.007088,370.220398 71.646515,344.506104 82.466660,319.543884 
	C100.210274,278.609161 123.297020,240.989288 151.985306,206.831039 
	C182.413406,170.601257 217.430222,139.639374 257.565796,114.435028 
	C285.317535,97.007523 314.482208,82.581772 345.193359,71.236748 
	C364.383636,64.147667 384.037506,58.764645 404.023285,54.312668 
	C423.392548,49.998024 442.967468,47.703075 462.623932,45.434601 
	C486.581604,42.669746 510.585510,42.937592 534.451904,44.631241 
	C556.258301,46.178711 577.972900,49.413437 599.447021,54.186619 
	C622.389648,59.286201 644.895935,65.691788 666.759644,74.170258 
	C714.678589,92.752609 758.383057,118.573547 797.574036,151.891113 
	C843.304321,190.767975 880.193359,236.738541 907.960022,289.983978 
	C924.118713,320.969818 936.335876,353.475220 945.102051,387.275024 
	C949.518372,404.303375 952.877136,421.590851 955.033386,439.027679 
	C958.773804,469.276276 960.545044,499.632202 958.309814,530.143494 
	C957.024841,547.682922 955.162659,565.162109 952.050598,582.431519 
	C948.312805,603.172791 943.047668,623.581482 936.559143,643.685425 
	C924.724304,680.354187 908.081482,714.684570 887.454590,747.155884 
	C865.528015,781.673096 839.301331,812.543091 808.999634,839.986450 
	C784.829956,861.876343 758.725342,881.115173 730.338562,897.164062 
	C707.404541,910.130188 683.600464,921.300598 658.527832,930.640991 
M238.957870,130.482574 
	C207.271805,153.211060 178.840591,179.383621 153.859695,209.407410 
	C109.615364,262.583374 78.940491,322.658661 61.575710,389.509491 
	C57.790569,404.081512 55.070946,418.933289 53.015263,433.920532 
	C50.484604,452.370697 48.306763,470.765900 48.173889,489.441711 
	C48.005630,513.091492 48.176056,536.733337 51.575104,560.137390 
	C53.928829,576.343872 56.878147,592.478882 60.817055,608.460144 
	C65.721046,628.357117 71.862221,647.809448 79.203934,666.869202 
	C91.213348,698.046814 106.967865,727.359985 125.772049,754.932251 
	C147.712814,787.103577 172.866364,816.509888 202.372971,842.138428 
	C229.922958,866.067627 259.583221,886.806580 292.063995,903.440369 
	C319.023407,917.246704 346.887207,928.715576 376.081116,937.112488 
	C391.901672,941.662903 407.878113,945.355530 423.985077,948.382996 
	C443.394867,952.031311 463.105469,953.786926 482.844788,954.541321 
	C508.978424,955.540039 535.158264,954.806702 561.030029,951.291931 
	C586.779175,947.793640 612.217407,942.311096 637.121338,934.446899 
	C668.813660,924.439087 699.043701,911.192566 727.951416,894.937073 
	C762.696838,875.398804 793.895020,851.039917 822.225220,823.108093 
	C844.920715,800.731750 864.916748,776.025085 882.375793,749.329529 
	C896.698425,727.429688 909.108276,704.479553 919.641846,680.516846 
	C926.726990,664.399231 932.511719,647.800476 937.668335,630.995361 
	C940.674194,621.199402 943.479431,611.287537 945.468384,601.248169 
	C947.717468,589.895508 950.481689,578.623291 951.692322,567.060181 
	C952.813904,556.346985 954.954285,545.706238 955.499390,534.975403 
	C956.200195,521.176941 955.363220,507.305176 955.894714,493.492126 
	C956.788208,470.269012 953.828857,447.350006 950.325806,424.569672 
	C947.748718,407.811005 943.596191,391.263092 938.746704,374.933075 
	C932.882935,355.187714 926.032898,335.824341 917.642273,317.016846 
	C901.000183,279.713531 879.760071,245.264236 853.901550,213.608566 
	C830.175110,184.563004 803.370728,158.764816 773.321960,136.386475 
	C749.109863,118.354927 723.328918,102.839272 696.039185,89.877151 
	C677.119873,80.890869 657.645447,73.218620 637.663757,67.054367 
	C619.938232,61.586098 601.925232,57.170113 583.593933,53.835411 
	C567.724487,50.948547 551.781677,48.759937 535.789795,47.590874 
	C517.074585,46.222729 498.281555,46.061924 479.436859,47.012459 
	C457.492798,48.119328 435.797882,50.853455 414.256744,54.663322 
	C400.285980,57.134262 386.454071,60.787819 372.863525,64.911903 
	C355.427155,70.203018 338.381714,76.666237 321.603394,83.895180 
	C292.588531,96.396210 265.404236,112.025803 238.957870,130.482574 
z"/>
<path fill="#000000" opacity="1.000000" stroke="none" 
	d="
M389.828491,297.774597 
	C418.403473,272.607849 446.724396,247.682114 475.045319,222.756363 
	C474.925629,222.342728 474.805908,221.929092 474.686218,221.515457 
	C467.511108,222.606903 460.430786,220.518448 453.247162,221.698242 
	C451.612579,221.966690 449.948486,222.231537 448.301025,222.213959 
	C442.391022,222.150940 440.781677,220.622589 440.764038,214.832977 
	C440.704193,195.166931 440.689880,175.500595 440.724304,155.834473 
	C440.735931,149.193375 441.316589,148.651978 447.835022,148.649170 
	C501.167114,148.626144 554.499207,148.624191 607.831299,148.606079 
	C611.153564,148.604965 614.442139,148.600006 617.771851,147.982513 
	C622.829834,147.044525 625.158203,149.019836 625.178589,154.053345 
	C625.260986,174.385910 625.266846,194.719040 625.217346,215.051743 
	C625.205200,220.033829 623.269348,221.924728 617.617615,222.112778 
	C610.792725,222.339844 603.922058,222.549042 597.135193,221.989609 
	C593.734009,221.709244 591.339905,222.586273 588.994507,224.602127 
	C566.257446,244.144699 543.594421,263.774658 520.717102,283.151672 
	C516.669373,286.580139 516.656494,288.993805 519.478760,293.361237 
	C547.316040,336.439209 574.898560,379.681793 602.550476,422.879486 
	C608.475281,432.135162 614.395752,441.393585 620.303162,450.660370 
	C621.996765,453.317139 623.846069,455.605591 627.363953,454.476562 
	C626.202332,431.855621 627.065796,409.285645 626.851624,386.726532 
	C626.788208,380.046143 628.002625,378.839203 634.644470,378.838379 
	C689.809814,378.831604 744.975159,378.828156 800.140503,378.839630 
	C808.922729,378.841431 809.342163,379.300446 809.342712,388.213745 
	C809.343872,408.046631 809.359497,427.879547 809.324768,447.712372 
	C809.314331,453.701965 808.725830,454.246857 802.688538,454.287567 
	C796.022339,454.332550 789.355652,454.324005 782.689209,454.328827 
	C776.467041,454.333313 776.338562,454.448914 776.338074,460.873383 
	C776.333679,515.872192 776.330933,570.870972 776.333191,625.869751 
	C776.333923,643.202698 776.490662,660.537354 776.268738,677.867371 
	C776.209167,682.525940 777.735413,684.032654 782.319275,683.812378 
	C789.136658,683.484924 795.985046,683.862976 802.813416,683.682129 
	C807.450256,683.559387 809.455566,685.348816 809.425110,690.134155 
	C809.289307,711.466187 809.269226,732.799866 809.405090,754.131775 
	C809.433777,758.641663 807.839539,760.337708 803.284912,760.330261 
	C746.786438,760.238464 690.287720,760.279419 633.789062,760.249207 
	C628.119141,760.246155 626.813721,758.885681 626.800964,753.043640 
	C626.756226,732.544373 626.753540,712.044861 626.797913,691.545593 
	C626.812561,684.784607 627.897156,683.777710 634.673340,683.744873 
	C641.006409,683.714233 647.339722,683.742493 653.672913,683.728088 
	C660.666504,683.712219 660.681091,683.703857 660.681458,676.813721 
	C660.684204,626.981445 660.679932,577.149231 660.679321,527.316956 
	C660.679077,505.150787 660.692627,482.984619 660.677490,460.818451 
	C660.673157,454.415649 660.224487,454.047913 653.228821,454.728455 
	C655.541809,457.451447 655.332458,460.550598 655.329102,463.643036 
	C655.308044,482.975922 655.337341,502.308777 655.320068,521.641663 
	C655.314209,528.264221 654.382874,529.253174 647.831848,529.255554 
	C581.166687,529.279602 514.501465,529.282654 447.836273,529.265503 
	C441.871155,529.263977 440.811584,528.209412 440.795959,522.247131 
	C440.743622,502.247711 440.732574,482.248108 440.762787,462.248627 
	C440.772430,455.862244 441.944794,454.765869 448.420868,454.737091 
	C455.420532,454.705963 462.420502,454.748657 469.420227,454.722229 
	C471.036621,454.716125 472.737946,455.001373 475.000092,453.422974 
	C457.095978,425.230774 439.258728,397.143890 421.091034,368.536652 
	C412.903320,375.450745 405.945801,382.536377 397.839508,387.878998 
	C386.546082,395.322205 382.520416,404.740143 383.946564,418.092438 
	C385.107117,428.958099 384.216400,440.064331 383.893188,451.053772 
	C383.798065,454.287842 385.221466,454.716522 387.703308,454.712067 
	C394.036194,454.700684 400.373199,454.867126 406.700562,454.684875 
	C410.424866,454.577606 412.337128,456.055664 412.650940,459.733246 
	C412.763794,461.056000 413.142700,462.368561 413.145630,463.686340 
	C413.188538,483.019043 413.241943,502.352112 413.167389,521.684570 
	C413.143616,527.847412 411.549164,529.263123 405.350891,529.263977 
	C352.352051,529.271301 299.353210,529.269287 246.354370,529.253601 
	C240.121948,529.251770 239.654449,528.785156 239.650620,522.847290 
	C239.637375,502.347809 239.632492,481.848328 239.651932,461.348846 
	C239.658020,454.928864 239.904816,454.734192 246.544403,454.735138 
	C252.210709,454.735962 257.877655,454.674194 263.543060,454.743958 
	C266.470428,454.779968 267.906311,453.557709 267.742035,450.570648 
	C267.687225,449.574036 267.750061,448.571320 267.750000,447.571381 
	C267.745026,374.739655 267.740265,301.907898 267.731384,229.076172 
	C267.730499,221.859863 267.720856,221.947281 260.747437,222.141724 
	C255.585098,222.285660 250.415359,222.157654 245.248947,222.163757 
	C241.411942,222.168304 239.561523,220.614151 239.582077,216.431732 
	C239.686142,195.266281 239.632706,174.099457 239.502274,152.933945 
	C239.479385,149.221481 241.303467,147.178665 244.557419,147.889694 
	C250.943268,149.285156 257.144440,147.492035 263.432831,147.657822 
	C278.405243,148.052505 293.380890,148.451355 308.357147,148.548508 
	C338.971558,148.747101 369.587250,148.749939 400.202393,148.824570 
	C401.368011,148.827408 402.537720,148.784134 403.698944,148.685272 
	C411.968201,147.981308 412.739319,147.959961 412.903503,156.425552 
	C413.290771,176.391434 414.043213,196.382446 412.461731,216.346954 
	C412.076172,221.214722 409.811157,222.435394 405.121674,221.627853 
	C398.882111,220.553375 392.529724,221.554871 386.232117,221.786819 
	C384.176819,221.862518 383.611420,223.590927 383.694580,225.422195 
	C384.849487,250.846802 383.953979,276.281433 384.086517,302.094910 
	C386.509094,301.367554 387.793427,299.322357 389.828491,297.774597 
M372.499878,526.604004 
	C383.161774,526.601929 393.824158,526.540649 404.485291,526.631226 
	C408.016632,526.661194 409.709045,525.316895 409.701019,521.655151 
	C409.657471,501.825562 409.692078,481.995789 409.712036,462.166077 
	C409.715088,459.156067 408.572937,457.560150 405.247681,457.605377 
	C399.421722,457.684631 393.591522,457.385284 387.763519,457.400696 
	C381.734100,457.416595 380.814148,456.688690 380.781677,450.572174 
	C380.700226,435.241943 380.725555,419.911163 380.659241,404.580811 
	C380.646423,401.619507 381.168427,398.823792 383.459259,396.847870 
	C394.931061,386.952759 406.487305,377.155640 417.989227,367.295288 
	C420.694885,364.975830 422.736145,365.612701 424.510803,368.443207 
	C427.607269,373.381989 430.743073,378.296143 433.873596,383.213501 
	C448.184937,405.693298 462.510620,428.163910 476.792175,450.662537 
	C477.833069,452.302246 479.514679,454.119873 478.437500,456.118469 
	C477.305145,458.219604 474.812714,457.364624 472.932098,457.391235 
	C465.269379,457.499756 457.603790,457.419525 449.939362,457.387604 
	C446.483276,457.373199 443.999634,458.539764 443.948303,462.449249 
	C443.690186,482.105072 444.315186,501.767914 443.463654,521.419922 
	C443.332703,524.441895 444.767456,526.037476 447.945953,526.090759 
	C452.607025,526.168762 457.265747,526.583435 461.924530,526.567688 
	C496.063080,526.452698 530.201355,526.152893 564.339844,526.137756 
	C591.829407,526.125610 619.319641,526.369995 646.807983,526.656616 
	C651.139282,526.701782 652.722412,525.145264 652.694763,520.831299 
	C652.570618,501.502228 652.602295,482.171539 652.706421,462.842133 
	C652.726868,459.038879 651.297791,457.299835 647.434631,457.380341 
	C641.438110,457.505310 635.377930,456.934753 629.456360,457.621460 
	C623.795532,458.277985 620.544189,456.249420 617.593872,451.625275 
	C583.818970,398.688110 549.895203,345.846008 516.012329,292.977753 
	C512.627258,287.695923 512.862610,286.118622 517.618591,282.029724 
	C540.842285,262.063568 564.087402,242.122177 587.260681,222.097656 
	C589.952026,219.772064 592.810486,218.676926 596.340820,218.742767 
	C602.670715,218.860825 609.021423,218.482651 615.331299,218.855789 
	C620.263184,219.147446 621.786255,217.166489 621.754028,212.511719 
	C621.632751,195.015884 621.742065,177.518494 621.751465,160.021698 
	C621.756348,150.975418 621.294861,150.523941 612.165588,150.411118 
	C610.999329,150.396698 609.832642,150.404510 608.666199,150.410034 
	C575.526428,150.566879 542.386780,150.802643 509.246857,150.853302 
	C489.264984,150.883850 469.282684,150.630508 449.300659,150.495667 
	C445.671448,150.471176 443.623199,152.088776 443.641144,155.866379 
	C443.731262,174.858688 443.922760,193.851257 443.861755,212.843033 
	C443.847015,217.429886 445.544312,219.010071 450.087555,218.841766 
	C458.075073,218.545898 466.080627,218.693604 474.078125,218.739426 
	C476.151642,218.751312 478.916382,218.026794 479.747131,220.629318 
	C480.532593,223.089783 477.998291,224.336975 476.452606,225.730392 
	C472.372467,229.408463 468.194427,232.977768 464.063873,236.600082 
	C438.647705,258.889038 413.241882,281.189850 387.798340,303.447510 
	C386.350403,304.714172 384.834015,306.655731 382.629547,305.800232 
	C380.004333,304.781464 380.806152,302.165741 380.797974,300.100220 
	C380.698547,274.939178 380.697937,249.777557 380.517181,224.617203 
	C380.487122,220.438461 382.468628,218.837280 386.215363,218.791885 
	C392.046631,218.721207 397.887146,218.594818 403.708893,218.841949 
	C407.639099,219.008789 409.463379,217.944229 409.447998,213.609406 
	C409.379486,194.284119 409.565338,174.957947 409.654816,155.632080 
	C409.673737,151.545273 407.457306,150.360321 403.593506,150.233902 
	C382.760040,149.552292 361.955109,150.929871 341.134766,150.896164 
	C309.977448,150.845718 278.820221,150.714188 247.663101,150.582474 
	C244.054794,150.567215 241.976761,151.921448 241.945526,155.805634 
	C241.788834,175.296997 241.611557,194.788300 241.379593,214.278870 
	C241.338684,217.715912 242.793655,218.990021 246.231140,218.883926 
	C252.557190,218.688721 258.893402,218.817490 265.225372,218.820679 
	C269.463318,218.822800 271.228180,220.970276 270.855286,225.150269 
	C270.604187,227.965637 270.448669,230.799774 270.447144,233.625626 
	C270.420563,283.116943 270.418976,332.608276 270.424072,382.099609 
	C270.426453,405.262024 270.365784,428.425110 270.549072,451.586212 
	C270.583923,455.990326 269.037109,457.576599 264.735321,457.394653 
	C259.412720,457.169586 254.072540,457.310272 248.740692,457.364838 
	C242.514801,457.428558 241.395477,458.522278 241.387894,464.638214 
	C241.364975,483.134949 241.511536,501.633209 241.296173,520.127441 
	C241.241165,524.851196 242.664520,527.031311 247.526398,526.555237 
	C249.173172,526.393982 250.854965,526.619202 252.520752,526.619141 
	C292.180450,526.617676 331.840149,526.609558 372.499878,526.604004 
M731.500000,756.980286 
	C754.657288,756.994507 777.814697,756.987793 800.971863,757.045166 
	C804.482178,757.053894 807.417358,756.618774 807.387512,752.131714 
	C807.255615,732.310181 807.064392,712.488708 807.054504,692.667114 
	C807.052429,688.552551 805.460266,687.049866 801.391907,687.150940 
	C794.567078,687.320496 787.732178,687.137329 780.902344,687.042480 
	C774.647156,686.955505 773.649048,685.963684 773.647827,679.757874 
	C773.633362,605.785767 773.661072,531.813599 773.562866,457.841644 
	C773.556885,453.355865 775.002869,451.464294 779.597534,451.589172 
	C787.088867,451.792786 794.590515,451.580597 802.087097,451.638916 
	C805.292175,451.663849 807.289062,450.445770 807.274658,447.054840 
	C807.189087,426.899963 807.007874,406.745361 806.982483,386.590485 
	C806.977539,382.639954 805.164124,381.348877 801.472778,381.351776 
	C745.993713,381.395569 690.514648,381.407990 635.035645,381.339813 
	C630.910339,381.334747 629.379456,383.070404 629.391174,387.026123 
	C629.449524,406.685089 629.486938,426.344879 629.346130,446.003052 
	C629.314087,450.480865 631.275269,451.787720 635.417969,451.689148 
	C642.910461,451.510712 650.412476,451.756958 657.907104,451.629578 
	C662.010681,451.559814 663.406799,453.313904 663.403198,457.357880 
	C663.335999,531.662964 663.370667,605.968140 663.361694,680.273315 
	C663.361023,685.939941 662.412964,686.886536 656.632507,686.963806 
	C649.636292,687.057434 642.629211,687.220764 635.643921,686.934998 
	C630.726379,686.733826 629.310364,688.794128 629.351562,693.446411 
	C629.516968,712.104492 629.394348,730.765015 629.409546,749.424622 
	C629.415466,756.703064 629.650208,757.007935 637.035461,757.014282 
	C668.190308,757.041138 699.345154,756.997864 731.500000,756.980286 
z"/>
<path fill="#000000" opacity="1.000000" stroke="none" 
	d="
M610.296753,590.000000 
	C610.300720,655.489075 610.299805,720.478210 610.312622,785.467285 
	C610.314209,793.669678 610.347717,793.667297 618.526245,793.630676 
	C640.850586,793.530823 663.174988,793.441406 685.499146,793.315063 
	C686.914001,793.307068 688.352844,793.366577 688.895996,794.789673 
	C689.652161,796.770935 688.533142,798.401367 687.133850,799.643860 
	C683.647949,802.739441 680.072571,805.735229 676.504395,808.737000 
	C652.041321,829.316772 627.568970,849.885498 603.103516,870.462402 
	C577.370850,892.104919 551.607971,913.711853 525.949158,935.441589 
	C522.051880,938.742004 518.923462,938.699402 515.022705,935.396301 
	C481.099426,906.670166 447.091461,878.043945 413.075226,849.427734 
	C393.707703,833.134827 374.285858,816.906372 354.862732,800.679688 
	C352.996643,799.120667 350.996277,797.513489 352.157684,794.882751 
	C353.292358,792.312622 355.732971,793.463257 357.867126,793.481689 
	C374.528717,793.625610 391.191650,793.614441 407.854187,793.645386 
	C413.519897,793.655884 419.193542,793.465759 424.848816,793.709656 
	C429.416199,793.906616 430.855225,792.161438 430.838593,787.568909 
	C430.692535,747.242920 430.770905,706.916077 430.773071,666.589539 
	C430.775299,625.429810 430.766510,584.270081 430.763245,543.110352 
	C430.763153,541.943909 430.740875,540.776428 430.780243,539.611206 
	C430.985992,533.519287 431.799377,532.642761 437.784424,532.634888 
	C458.947418,532.607056 480.110535,532.634521 501.273590,532.637085 
	C535.101257,532.641174 568.928955,532.637817 602.756653,532.647949 
	C609.614807,532.649963 610.242554,533.229980 610.260254,540.010010 
	C610.303345,556.506592 610.287842,573.003357 610.296753,590.000000 
M453.306030,879.177795 
	C473.180542,895.902527 493.085999,912.590637 512.914001,929.370300 
	C520.570435,935.849548 520.410339,935.850281 527.919861,929.451721 
	C543.501404,916.175171 559.131287,902.954529 574.822815,889.808289 
	C606.842590,862.982483 638.963867,836.277710 670.910339,809.365234 
	C675.113281,805.824463 679.820923,802.678589 683.825317,797.212402 
	C678.676697,796.906006 674.426514,796.454407 670.174194,796.434143 
	C651.355469,796.344360 632.534729,796.251221 613.717957,796.455261 
	C608.863831,796.507812 607.489441,794.888733 607.499573,790.075623 
	C607.642517,722.256531 607.596313,654.437073 607.598511,586.617676 
	C607.598999,571.620361 607.552917,556.622742 607.650452,541.626038 
	C607.678284,537.351257 606.425720,535.403442 601.591492,535.430603 
	C572.265625,535.595825 542.936951,535.577393 513.611450,535.341064 
	C503.118530,535.256531 492.656158,536.000244 482.143158,535.627319 
	C467.496674,535.107849 452.820374,535.450806 438.157104,535.368469 
	C435.007111,535.350769 433.554504,536.894043 433.458038,539.895996 
	C433.388458,542.060425 433.392517,544.227722 433.392487,546.393738 
	C433.390686,627.212463 433.392212,708.031250 433.393372,788.849976 
	C433.393463,796.270935 433.339966,796.368835 425.856476,796.377991 
	C406.026764,796.402222 386.196899,796.353577 366.367340,796.415894 
	C363.299194,796.425537 360.103821,796.024109 356.308777,797.873413 
	C388.789215,825.121399 420.760345,851.942139 453.306030,879.177795 
z"/>
<path fill="#000000" opacity="1.000000" stroke="none" 
	d="
M421.373779,554.002319 
	C421.364899,577.166565 421.371582,599.831238 421.337280,622.495911 
	C421.327667,628.842773 420.861115,629.296692 414.464233,629.297852 
	C356.135986,629.308228 297.807770,629.307251 239.479523,629.289734 
	C233.065750,629.287781 232.672241,628.887817 232.667084,622.473328 
	C232.645599,595.809143 232.644318,569.144897 232.667725,542.480713 
	C232.673309,536.122559 233.083557,535.705627 239.528336,535.703308 
	C297.856567,535.682434 356.184784,535.680725 414.513000,535.693909 
	C420.926147,535.695374 421.336700,536.158325 421.362366,542.503784 
	C421.377167,546.170044 421.370728,549.836365 421.373779,554.002319 
M234.373383,548.614624 
	C234.373077,572.276123 234.372177,595.937622 234.372925,619.599121 
	C234.373138,626.332275 234.629410,626.636658 241.458618,626.637695 
	C298.112823,626.646545 354.767029,626.640625 411.421234,626.621338 
	C418.442352,626.618896 418.861481,626.217651 418.870850,619.327271 
	C418.904144,594.833008 418.893921,570.338684 418.900055,545.844421 
	C418.901886,538.506165 418.810638,538.395508 411.249969,538.393433 
	C354.762390,538.378174 298.274841,538.372314 241.787262,538.364258 
	C240.954147,538.364136 240.120636,538.392029 239.287979,538.374817 
	C236.025238,538.307190 234.264969,539.750549 234.370865,543.159912 
	C234.417404,544.658142 234.376877,546.158997 234.373383,548.614624 
z"/>
</svg>